<mxfile host="app.diagrams.net" modified="2024-04-08T17:00:32.662Z" agent="Mozilla/5.0 (Windows NT 10.0; Win64; x64) AppleWebKit/537.36 (KHTML, like Gecko) Chrome/123.0.0.0 Safari/537.36" etag="wsGbf1CNjtWyTTzEAL2n" version="24.2.2" type="github">
  <diagram name="Page-1" id="hCE-N7gqyjaDlNYpYCw_">
    <mxGraphModel dx="1214" dy="692" grid="1" gridSize="10" guides="1" tooltips="1" connect="1" arrows="1" fold="1" page="1" pageScale="1" pageWidth="1169" pageHeight="827" math="0" shadow="0">
      <root>
        <mxCell id="0" />
        <mxCell id="1" parent="0" />
        <mxCell id="0kx0r4Rlf0pI_rS8J3VP-30" style="rounded=0;orthogonalLoop=1;jettySize=auto;html=1;exitX=0.363;exitY=0.943;exitDx=0;exitDy=0;exitPerimeter=0;" parent="1" source="0kx0r4Rlf0pI_rS8J3VP-58" target="0kx0r4Rlf0pI_rS8J3VP-27" edge="1">
          <mxGeometry relative="1" as="geometry">
            <mxPoint x="290.96000000000004" y="242.1500000000001" as="sourcePoint" />
            <Array as="points">
              <mxPoint x="220" y="290" />
            </Array>
          </mxGeometry>
        </mxCell>
        <mxCell id="0kx0r4Rlf0pI_rS8J3VP-31" value="cookie http" style="edgeLabel;html=1;align=center;verticalAlign=middle;resizable=0;points=[];" parent="0kx0r4Rlf0pI_rS8J3VP-30" vertex="1" connectable="0">
          <mxGeometry x="0.3227" y="-6" relative="1" as="geometry">
            <mxPoint as="offset" />
          </mxGeometry>
        </mxCell>
        <mxCell id="0kx0r4Rlf0pI_rS8J3VP-34" style="edgeStyle=orthogonalEdgeStyle;rounded=0;orthogonalLoop=1;jettySize=auto;html=1;entryX=0;entryY=0.5;entryDx=0;entryDy=0;" parent="1" source="0kx0r4Rlf0pI_rS8J3VP-1" target="0kx0r4Rlf0pI_rS8J3VP-33" edge="1">
          <mxGeometry relative="1" as="geometry" />
        </mxCell>
        <mxCell id="0kx0r4Rlf0pI_rS8J3VP-1" value="Firewalls" style="rounded=1;whiteSpace=wrap;html=1;" parent="1" vertex="1">
          <mxGeometry x="421" y="180" width="129" height="60" as="geometry" />
        </mxCell>
        <mxCell id="0kx0r4Rlf0pI_rS8J3VP-3" style="edgeStyle=orthogonalEdgeStyle;rounded=0;orthogonalLoop=1;jettySize=auto;html=1;entryX=0.025;entryY=0.437;entryDx=0;entryDy=0;entryPerimeter=0;" parent="1" source="0kx0r4Rlf0pI_rS8J3VP-2" target="0kx0r4Rlf0pI_rS8J3VP-58" edge="1">
          <mxGeometry relative="1" as="geometry">
            <mxPoint x="286.9200000000001" y="208.55000000000007" as="targetPoint" />
          </mxGeometry>
        </mxCell>
        <mxCell id="0kx0r4Rlf0pI_rS8J3VP-20" value="compra de ingresso" style="edgeLabel;html=1;align=center;verticalAlign=middle;resizable=0;points=[];" parent="0kx0r4Rlf0pI_rS8J3VP-3" vertex="1" connectable="0">
          <mxGeometry x="-0.362" y="-1" relative="1" as="geometry">
            <mxPoint x="19" y="-1" as="offset" />
          </mxGeometry>
        </mxCell>
        <mxCell id="0kx0r4Rlf0pI_rS8J3VP-2" value="Actor" style="shape=umlActor;verticalLabelPosition=bottom;verticalAlign=top;html=1;outlineConnect=0;" parent="1" vertex="1">
          <mxGeometry x="90" y="170" width="40" height="80" as="geometry" />
        </mxCell>
        <mxCell id="0kx0r4Rlf0pI_rS8J3VP-28" style="rounded=0;orthogonalLoop=1;jettySize=auto;html=1;entryX=0.083;entryY=1.07;entryDx=0;entryDy=0;entryPerimeter=0;" parent="1" source="0kx0r4Rlf0pI_rS8J3VP-27" target="0kx0r4Rlf0pI_rS8J3VP-58" edge="1">
          <mxGeometry relative="1" as="geometry">
            <mxPoint x="290" y="219.95000000000005" as="targetPoint" />
          </mxGeometry>
        </mxCell>
        <mxCell id="0kx0r4Rlf0pI_rS8J3VP-29" value="login" style="edgeLabel;html=1;align=center;verticalAlign=middle;resizable=0;points=[];" parent="0kx0r4Rlf0pI_rS8J3VP-28" vertex="1" connectable="0">
          <mxGeometry x="-0.0422" y="1" relative="1" as="geometry">
            <mxPoint as="offset" />
          </mxGeometry>
        </mxCell>
        <mxCell id="0kx0r4Rlf0pI_rS8J3VP-33" value="Balanceador de Carga" style="rounded=1;whiteSpace=wrap;html=1;" parent="1" vertex="1">
          <mxGeometry x="620" y="180" width="211" height="60" as="geometry" />
        </mxCell>
        <mxCell id="0kx0r4Rlf0pI_rS8J3VP-4" value="sticky session" style="text;html=1;align=center;verticalAlign=middle;whiteSpace=wrap;rounded=0;" parent="1" vertex="1">
          <mxGeometry x="720" y="210" width="120" height="30" as="geometry" />
        </mxCell>
        <mxCell id="0kx0r4Rlf0pI_rS8J3VP-27" value="Actor" style="shape=umlActor;verticalLabelPosition=bottom;verticalAlign=top;html=1;outlineConnect=0;" parent="1" vertex="1">
          <mxGeometry x="100" y="290" width="40" height="80" as="geometry" />
        </mxCell>
        <mxCell id="0kx0r4Rlf0pI_rS8J3VP-35" value="" style="rounded=1;whiteSpace=wrap;html=1;" parent="1" vertex="1">
          <mxGeometry x="850" y="130" width="580" height="180" as="geometry" />
        </mxCell>
        <mxCell id="0kx0r4Rlf0pI_rS8J3VP-37" value="" style="rounded=0;whiteSpace=wrap;html=1;fillColor=#fff2cc;strokeColor=#d6b656;" parent="1" vertex="1">
          <mxGeometry x="880" y="140" width="250" height="160" as="geometry" />
        </mxCell>
        <mxCell id="0kx0r4Rlf0pI_rS8J3VP-36" value="CORE API" style="rounded=0;whiteSpace=wrap;html=1;" parent="1" vertex="1">
          <mxGeometry x="930" y="170" width="160" height="110" as="geometry" />
        </mxCell>
        <mxCell id="0kx0r4Rlf0pI_rS8J3VP-38" value="Auto Scalling" style="text;html=1;align=center;verticalAlign=middle;whiteSpace=wrap;rounded=0;" parent="1" vertex="1">
          <mxGeometry x="880" y="140" width="90" height="30" as="geometry" />
        </mxCell>
        <mxCell id="0kx0r4Rlf0pI_rS8J3VP-45" style="edgeStyle=orthogonalEdgeStyle;rounded=0;orthogonalLoop=1;jettySize=auto;html=1;" parent="1" source="0kx0r4Rlf0pI_rS8J3VP-40" edge="1">
          <mxGeometry relative="1" as="geometry">
            <mxPoint x="1140" y="220.00000000000006" as="targetPoint" />
          </mxGeometry>
        </mxCell>
        <mxCell id="0kx0r4Rlf0pI_rS8J3VP-40" value="" style="rounded=1;whiteSpace=wrap;html=1;" parent="1" vertex="1">
          <mxGeometry x="1290" y="150" width="120" height="140" as="geometry" />
        </mxCell>
        <mxCell id="0kx0r4Rlf0pI_rS8J3VP-44" style="edgeStyle=orthogonalEdgeStyle;rounded=0;orthogonalLoop=1;jettySize=auto;html=1;" parent="1" source="0kx0r4Rlf0pI_rS8J3VP-41" target="0kx0r4Rlf0pI_rS8J3VP-37" edge="1">
          <mxGeometry relative="1" as="geometry" />
        </mxCell>
        <mxCell id="0kx0r4Rlf0pI_rS8J3VP-41" value="" style="rounded=1;whiteSpace=wrap;html=1;" parent="1" vertex="1">
          <mxGeometry x="1160" y="150" width="120" height="140" as="geometry" />
        </mxCell>
        <mxCell id="0kx0r4Rlf0pI_rS8J3VP-42" value="Cache" style="shape=cylinder3;whiteSpace=wrap;html=1;boundedLbl=1;backgroundOutline=1;size=15;" parent="1" vertex="1">
          <mxGeometry x="1190" y="180" width="60" height="80" as="geometry" />
        </mxCell>
        <mxCell id="0kx0r4Rlf0pI_rS8J3VP-43" value="DB" style="shape=cylinder3;whiteSpace=wrap;html=1;boundedLbl=1;backgroundOutline=1;size=15;" parent="1" vertex="1">
          <mxGeometry x="1320" y="180" width="60" height="80" as="geometry" />
        </mxCell>
        <mxCell id="0kx0r4Rlf0pI_rS8J3VP-46" value="Rate Limit - 1 request/s" style="text;html=1;align=center;verticalAlign=middle;whiteSpace=wrap;rounded=0;" parent="1" vertex="1">
          <mxGeometry x="950" y="243" width="120" height="30" as="geometry" />
        </mxCell>
        <mxCell id="0kx0r4Rlf0pI_rS8J3VP-47" style="edgeStyle=orthogonalEdgeStyle;rounded=0;orthogonalLoop=1;jettySize=auto;html=1;entryX=0.002;entryY=0.44;entryDx=0;entryDy=0;entryPerimeter=0;" parent="1" source="0kx0r4Rlf0pI_rS8J3VP-33" target="0kx0r4Rlf0pI_rS8J3VP-37" edge="1">
          <mxGeometry relative="1" as="geometry" />
        </mxCell>
        <mxCell id="0kx0r4Rlf0pI_rS8J3VP-48" value="" style="endArrow=none;dashed=1;html=1;rounded=0;" parent="1" edge="1">
          <mxGeometry width="50" height="50" relative="1" as="geometry">
            <mxPoint x="850" y="400" as="sourcePoint" />
            <mxPoint x="930" y="280" as="targetPoint" />
          </mxGeometry>
        </mxCell>
        <mxCell id="0kx0r4Rlf0pI_rS8J3VP-49" value="Key Featueres" style="swimlane;whiteSpace=wrap;html=1;" parent="1" vertex="1">
          <mxGeometry x="730" y="400" width="290" height="70" as="geometry" />
        </mxCell>
        <mxCell id="0kx0r4Rlf0pI_rS8J3VP-50" value="Verificar Disponibilidade de Ingressos" style="text;strokeColor=none;fillColor=none;align=left;verticalAlign=middle;spacingLeft=4;spacingRight=4;overflow=hidden;points=[[0,0.5],[1,0.5]];portConstraint=eastwest;rotatable=0;whiteSpace=wrap;html=1;" parent="0kx0r4Rlf0pI_rS8J3VP-49" vertex="1">
          <mxGeometry y="20" width="210" height="30" as="geometry" />
        </mxCell>
        <mxCell id="0kx0r4Rlf0pI_rS8J3VP-51" value="Após login bem-sucedido gerar um cookie http" style="text;strokeColor=none;fillColor=none;align=left;verticalAlign=middle;spacingLeft=4;spacingRight=4;overflow=hidden;points=[[0,0.5],[1,0.5]];portConstraint=eastwest;rotatable=0;whiteSpace=wrap;html=1;" parent="0kx0r4Rlf0pI_rS8J3VP-49" vertex="1">
          <mxGeometry y="40" width="290" height="30" as="geometry" />
        </mxCell>
        <mxCell id="0kx0r4Rlf0pI_rS8J3VP-52" value="Arquivos Estáticos" style="shape=cylinder3;whiteSpace=wrap;html=1;boundedLbl=1;backgroundOutline=1;size=15;" parent="1" vertex="1">
          <mxGeometry x="1190" y="334" width="60" height="80" as="geometry" />
        </mxCell>
        <mxCell id="0kx0r4Rlf0pI_rS8J3VP-53" value="" style="endArrow=classic;html=1;rounded=0;exitX=0.998;exitY=0.576;exitDx=0;exitDy=0;exitPerimeter=0;entryX=0;entryY=0.5;entryDx=0;entryDy=0;entryPerimeter=0;" parent="1" source="0kx0r4Rlf0pI_rS8J3VP-36" target="0kx0r4Rlf0pI_rS8J3VP-52" edge="1">
          <mxGeometry width="50" height="50" relative="1" as="geometry">
            <mxPoint x="1250" y="340" as="sourcePoint" />
            <mxPoint x="1300" y="290" as="targetPoint" />
          </mxGeometry>
        </mxCell>
        <mxCell id="0kx0r4Rlf0pI_rS8J3VP-61" style="rounded=0;orthogonalLoop=1;jettySize=auto;html=1;entryX=0.003;entryY=0.456;entryDx=0;entryDy=0;entryPerimeter=0;" parent="1" source="0kx0r4Rlf0pI_rS8J3VP-58" target="0kx0r4Rlf0pI_rS8J3VP-1" edge="1">
          <mxGeometry relative="1" as="geometry" />
        </mxCell>
        <mxCell id="0kx0r4Rlf0pI_rS8J3VP-58" value="TLS" style="text;html=1;align=center;verticalAlign=middle;whiteSpace=wrap;rounded=0;" parent="1" vertex="1">
          <mxGeometry x="310" y="195" width="60" height="30" as="geometry" />
        </mxCell>
      </root>
    </mxGraphModel>
  </diagram>
</mxfile>
